<?xml version="1.0" encoding="utf-8"?>
<!-- Generator: Adobe Illustrator 16.0.0, SVG Export Plug-In . SVG Version: 6.00 Build 0)  -->
<!DOCTYPE svg PUBLIC "-//W3C//DTD SVG 1.1//EN" "http://www.w3.org/Graphics/SVG/1.1/DTD/svg11.dtd">
<svg version="1.1" id="Layer_1" xmlns="http://www.w3.org/2000/svg" xmlns:xlink="http://www.w3.org/1999/xlink" x="0px" y="0px"
	 width="702.918px" height="186.469px" viewBox="0 0 702.918 186.469" enable-background="new 0 0 702.918 186.469"
	 xml:space="preserve">
<g>
	<path fill="#FFFFFF" d="M102.202,60.298c0.581,25.79-15.937,51.868-51.435,51.868H16.429V10.748h34.338
		C85.107,10.748,101.624,35.377,102.202,60.298 M24.253,18.137v86.496h26.514c30.138,0,44.047-22.602,43.612-44.335
		c-0.436-21.153-14.343-42.161-43.612-42.161H24.253z"/>
	<polygon fill="#FFFFFF" points="128.925,104.633 119.871,112.166 182.535,112.166 191.59,104.633 	"/>
	<polygon fill="#FFFFFF" points="189.851,10.748 128.925,10.748 119.871,18.137 180.795,18.137 	"/>
	<polygon fill="#FFFFFF" points="186.954,57.545 128.925,57.545 119.871,64.646 177.898,64.646 	"/>
	<path fill="#FFFFFF" d="M292.567,98.113c-10.142,10.143-23.617,15.213-36.945,15.213c-34.194,0-52.015-23.907-52.16-51.291
		c-0.289-27.092,17.387-52.449,52.16-52.449c13.328,0,26.804,5.072,36.945,15.215l-5.36,4.637
		c-8.694-8.695-20.14-12.896-31.585-12.896c-29.559,0-44.771,20.862-44.625,45.206c0.289,23.759,15.357,44.332,44.625,44.332
		c11.445,0,23.036-4.344,31.729-12.893L292.567,98.113z"/>
	<polygon fill="#FFFFFF" points="317.188,10.748 317.188,104.777 374.272,104.777 374.272,112.166 309.363,112.166 309.363,10.748 	
		"/>
	<path fill="#FFFFFF" d="M483.943,61.601c-0.145,26.659-17.097,52.306-51.145,52.306s-51.145-25.791-51.145-52.596
		c0-27.236,16.95-52.158,51.145-52.158C466.992,9.152,484.088,34.219,483.943,61.601 M389.333,61.455
		c0.146,22.894,14.634,45.205,43.466,45.205c28.977,0,43.611-22.312,43.611-45.205c0-23.471-14.488-45.058-43.611-45.058
		C403.676,16.397,389.188,37.552,389.333,61.455"/>
	<path fill="#FFFFFF" d="M580.135,10.748v63.024c0,53.028-77.66,53.173-77.66,0V10.748h7.678v63.024
		c0,43.612,62.301,43.464,62.301,0V10.748H580.135z"/>
	<path fill="#FFFFFF" d="M686.474,60.298c0.577,25.79-15.938,51.868-51.437,51.868H600.7V10.748h34.338
		C669.375,10.748,685.893,35.377,686.474,60.298 M608.525,18.137v86.496h26.513c30.138,0,44.047-22.602,43.61-44.335
		c-0.433-21.153-14.342-42.161-43.61-42.161H608.525z"/>
	<polygon fill="#FFFFFF" points="183.531,156.721 205.431,156.721 205.431,159.494 183.531,159.494 183.531,176.719 
		180.596,176.719 180.596,138.625 206.193,138.625 206.193,141.559 183.531,141.559 	"/>
	<path fill="#FFFFFF" d="M250.528,157.699c-0.054,10-6.413,19.617-19.183,19.617c-12.772,0-19.185-9.674-19.185-19.727
		c0-10.215,6.358-19.562,19.185-19.562C244.168,138.027,250.582,147.43,250.528,157.699 M215.041,157.645
		c0.055,8.586,5.488,16.955,16.305,16.955c10.867,0,16.356-8.369,16.356-16.955c0-8.803-5.435-16.9-16.356-16.9
		C220.42,140.744,214.986,148.68,215.041,157.645"/>
	<path fill="#FFFFFF" d="M286.598,138.625v23.639c0,19.891-29.128,19.945-29.128,0v-23.639h2.879v23.639
		c0,16.359,23.369,16.303,23.369,0v-23.639H286.598z"/>
	<polygon fill="#FFFFFF" points="295.879,138.625 321.476,170.09 321.476,138.625 324.357,138.625 324.357,176.666 323.214,176.666 
		297.564,145.254 297.564,176.666 294.629,176.666 294.629,138.625 	"/>
	<path fill="#FFFFFF" d="M364.721,157.209c0.217,9.674-5.979,19.457-19.292,19.457H332.55v-38.041h12.879
		C358.308,138.625,364.503,147.863,364.721,157.209 M335.485,141.396v32.441h9.944c11.304,0,16.521-8.477,16.356-16.629
		c-0.162-7.932-5.379-15.812-16.356-15.812H335.485z"/>
	<path fill="#FFFFFF" d="M401.608,176.666l-4.185-9.348h-22.716l-4.129,9.348h-3.152l17.063-38.041h3.206l17.064,38.041H401.608z
		 M396.283,164.602l-10.217-23.152l-10.216,23.152H396.283z"/>
	<polygon fill="#FFFFFF" points="414.207,141.287 400.458,141.287 400.458,138.678 430.891,138.678 430.891,141.287 
		417.141,141.287 417.141,176.666 414.207,176.666 	"/>
	<rect x="436.478" y="138.625" fill="#FFFFFF" width="2.879" height="38.041"/>
	<path fill="#FFFFFF" d="M485.6,157.699c-0.055,10-6.414,19.617-19.184,19.617c-12.771,0-19.184-9.674-19.184-19.727
		c0-10.215,6.357-19.562,19.184-19.562C479.241,138.027,485.653,147.43,485.6,157.699 M450.113,157.645
		c0.055,8.586,5.488,16.955,16.304,16.955c10.869,0,16.357-8.369,16.357-16.955c0-8.803-5.436-16.9-16.357-16.9
		C455.494,140.744,450.058,148.68,450.113,157.645"/>
	<polygon fill="#FFFFFF" points="493.845,138.625 519.442,170.09 519.442,138.625 522.321,138.625 522.321,176.666 521.18,176.666 
		495.529,145.254 495.529,176.666 492.596,176.666 492.596,138.625 	"/>
	<rect x="16.437" y="156.232" fill="#FFFFFF" width="157.722" height="2.879"/>
	<rect x="529.422" y="156.232" fill="#FFFFFF" width="157.06" height="2.879"/>
</g>
</svg>
