<?xml version="1.0" encoding="utf-8"?>
<!-- Generator: Adobe Illustrator 16.0.0, SVG Export Plug-In . SVG Version: 6.00 Build 0)  -->
<!DOCTYPE svg PUBLIC "-//W3C//DTD SVG 1.1//EN" "http://www.w3.org/Graphics/SVG/1.1/DTD/svg11.dtd">
<svg version="1.1" id="Layer_1" xmlns="http://www.w3.org/2000/svg" xmlns:xlink="http://www.w3.org/1999/xlink" x="0px" y="0px"
	 width="1370px" height="376px" viewBox="0 0 1370 376" enable-background="new 0 0 1370 376" xml:space="preserve">
<g id="Layer_1_1_">
	<g>
		<path fill="#FFFFFF" d="M126.235,344.137H4.535v-53.048h121.7c7.316-0.026,13.241-5.951,13.267-13.268
			c0-3.765-1.297-6.23-3.892-7.406c-2.99-1.25-6.213-1.854-9.454-1.765H70.853c-8.921,0.065-17.759-1.726-25.951-5.265
			c-15.894-6.817-28.515-19.547-35.198-35.498c-6.885-16.608-6.885-35.272,0-51.886c6.655-15.898,19.3-28.542,35.198-35.199
			c8.206-3.48,17.037-5.244,25.951-5.185h107.852v53.065H70.853c-7.309,0.043-13.223,5.959-13.267,13.269
			c-0.067,3.618,1.345,7.104,3.909,9.657c2.42,2.586,5.815,4.031,9.357,3.988h55.383c8.79-0.06,17.517,1.497,25.746,4.584
			c7.802,2.864,14.98,7.203,21.146,12.776c6.008,5.543,10.833,12.24,14.18,19.694c3.566,7.921,5.362,16.523,5.264,25.213
			c0.073,8.887-1.719,17.688-5.264,25.84c-3.39,7.812-8.198,14.928-14.18,20.987c-6.027,6.056-13.186,10.874-21.066,14.179
			C143.904,342.386,135.113,344.177,126.235,344.137z"/>
		<path fill="#FFFFFF" d="M325.583,344.135c-12.453,0.073-24.789-2.415-36.24-7.31c-22.426-9.552-40.287-27.411-49.836-49.839
			c-4.897-11.448-7.385-23.783-7.312-36.237v-62.062h-25.981v-53.065h25.935V52.111H285.2v83.511h80.75v53.065H285.2v62.031
			c-0.04,5.41,1.033,10.771,3.151,15.754c2.01,4.773,4.925,9.112,8.587,12.779c3.699,3.684,8.069,6.631,12.872,8.681
			c4.98,2.124,10.344,3.198,15.757,3.153h40.366v53.048L325.583,344.135L325.583,344.135z"/>
		<path fill="#FFFFFF" d="M598.054,344.158V131.713h-12.873l-20.641,24.784c-4.992-4.716-10.306-9.079-15.899-13.062
			c-5.635-4.021-11.607-7.549-17.851-10.541c-6.188-2.967-12.653-5.313-19.302-7.013c-6.562-1.688-13.312-2.54-20.089-2.538
			c-14.216-0.109-28.311,2.624-41.455,8.036c-12.709,5.253-24.245,12.981-33.938,22.736c-9.882,10.036-17.67,21.938-22.91,35.011
			c-5.718,14.223-8.57,29.436-8.397,44.766c0,17.413,2.801,32.949,8.397,46.605c5.142,13.021,12.945,24.827,22.91,34.662
			c9.706,9.448,21.26,16.788,33.938,21.554c13.244,5.006,27.297,7.521,41.455,7.421c6.729,0,13.432-0.854,19.946-2.535
			c6.611-1.703,13.046-4.021,19.224-6.933c6.234-2.918,12.204-6.375,17.835-10.336c5.621-3.931,11-8.197,16.104-12.779
			l19.748,32.605L598.054,344.158L598.054,344.158z M544.42,233.939c0.006,7.258-1.414,14.444-4.177,21.158
			c-2.692,6.689-6.557,12.847-11.406,18.183c-4.781,5.242-10.5,9.542-16.859,12.685c-6.396,3.154-13.443,4.775-20.577,4.729
			c-7.024,0.085-14.008-1.13-20.594-3.577c-6.318-2.389-12.044-6.118-16.78-10.937c-4.933-5.105-8.751-11.18-11.219-17.835
			c-2.846-7.774-4.233-16.006-4.095-24.283c-0.141-8.277,1.249-16.517,4.096-24.295c2.47-6.652,6.29-12.728,11.219-17.836
			c4.738-4.81,10.463-8.535,16.78-10.918c6.568-2.504,13.548-3.765,20.577-3.718c7.135-0.054,14.183,1.565,20.578,4.728
			c6.355,3.113,12.074,7.388,16.857,12.605c4.853,5.319,8.72,11.46,11.424,18.135c2.783,6.713,4.225,13.906,4.238,21.178
			L544.42,233.939L544.42,233.939z"/>
		<path fill="#FFFFFF" d="M821.176,172.93l-39.014,39.186c-1.855-5.305-4.553-10.271-7.986-14.717
			c-3.237-4.221-7.082-7.938-11.408-11.029c-4.198-2.979-8.84-5.281-13.754-6.822c-4.918-1.561-10.049-2.352-15.205-2.349
			c-7.107-0.04-14.135,1.493-20.578,4.491c-6.414,2.979-12.132,7.272-16.779,12.605c-4.894,5.657-8.696,12.175-11.219,19.223
			c-2.809,7.881-4.194,16.197-4.096,24.562c-0.049,7.037,1.345,14.01,4.096,20.485c2.652,6.246,6.459,11.938,11.219,16.779
			c4.792,4.842,10.496,8.688,16.779,11.312c11.296,4.687,23.854,5.373,35.595,1.956c4.774-1.42,9.336-3.484,13.551-6.146
			c4.234-2.674,8.045-5.96,11.312-9.755c3.312-3.839,6.039-8.143,8.099-12.776l39.014,39.201
			c-4.903,6.974-10.641,13.324-17.08,18.906c-6.369,5.53-13.373,10.291-20.862,14.182c-7.488,3.908-15.423,6.895-23.632,8.888
			c-8.329,2.024-16.872,3.041-25.446,3.024c-14.24,0.09-28.349-2.736-41.454-8.303c-25.553-10.736-45.938-30.979-56.847-56.454
			c-5.635-13.06-8.494-27.143-8.397-41.36c-0.103-15.341,2.761-30.557,8.429-44.81c5.29-13.452,13.062-25.788,22.91-36.367
			c9.619-10.284,21.146-18.601,33.938-24.485c12.995-5.988,27.146-9.047,41.454-8.965c8.651-0.007,17.268,1.104,25.637,3.309
			c16.906,4.465,32.408,13.139,45.062,25.21C811.01,158.107,816.621,165.184,821.176,172.93z"/>
		<polygon fill="#AAFF00" points="1365.465,31.842 1314.977,31.842 1252.469,101.479 1310.641,201.262 1209.203,344.137 
			1261.686,344.137 1361.471,201.262 1303.312,101.479 		"/>
		<polygon fill="#FFFFFF" points="951.873,198.141 989.176,141.475 934.215,141.475 902.525,189.003 902.525,52.16 848.891,52.16 
			848.891,344.137 903.338,343.996 903.455,268.382 922.201,242.431 981.904,344.137 1036.498,344.137 		"/>
		<polygon fill="#AAFF00" points="1180.92,31.993 1006.277,31.993 950.408,116.285 1005.756,116.285 1035.459,71.918 
			1151.85,71.918 1226.111,200.561 1155.531,304.108 1051.797,304.148 1075.652,344.137 1180.416,344.137 1277.756,204.837 		"/>
	</g>
</g>
<g id="Layer_2" display="none">
	<g id="Layer_2_1_" display="inline">
		<rect x="820.543" y="128.255" fill="#E99600" width="28.297" height="443.489"/>
		<rect x="3.167" y="145.773" fill="#E99600" width="1363.667" height="27.294"/>
		<rect x="3.167" y="485.779" fill="#E99600" width="1362.996" height="27.297"/>
		<rect x="3.167" y="237.428" fill="#E99600" width="931.13" height="27.293"/>
		<rect x="598.542" y="128.255" fill="#E99600" width="28.297" height="443.489"/>
		<rect x="178.542" y="128.255" fill="#E99600" width="28.297" height="443.489"/>
	</g>
</g>
</svg>
